Coordinates
version=1
nRows=30
nColumns=30
inDegrees=yes

Units are S.I. units (second, meters, Newtons, ...)
Angles are in degrees.

endheader
time	floatyaw	floatroll	floatpitch	floatx	floaty	floatz	pro_sup_l	deviation_l	flexion_l	cmc_flexion_l	cmc_abduction_l	mp_flexion_l	ip_flexion_l	2mcp_flexion_l	2mcp_abduction_l	2pm_flexion_l	2md_flexion_l	3mcp_flexion_l	3mcp_abduction_l	3pm_flexion_l	3md_flexion_l	4mcp_flexion_l	4mcp_abduction_l	4pm_flexion_l	4md_flexion_l	5mcp_flexion_l	5mcp_abduction_l	5pm_flexion_l	5md_flexion_l
-0.495000	-160.147433	-5.066637	-73.570646	0.077002	-0.178710	-0.017698	99.428113	3.676125	1.131492	14.034747	9.705064	-25.223526	-40.716902	27.343035	5.980205	42.017489	28.766507	21.244159	3.819892	43.106114	28.892228	10.653923	-4.253320	50.908129	34.927718	-1.234038	-6.512611	60.371127	40.289795
-0.485000	-160.147433	-5.066637	-73.570646	0.076568	-0.178737	-0.017907	99.352643	3.654327	1.257937	14.119036	9.771299	-25.245527	-40.804569	27.030515	5.972337	42.007705	28.798918	21.125250	3.813893	43.089103	28.886761	10.564060	-4.257468	50.875446	34.892093	-1.242816	-6.528711	60.287827	40.214880
-0.475000	-160.147433	-5.066637	-73.570646	0.076112	-0.178812	-0.018136	99.318253	3.633270	1.383554	14.211670	9.796810	-25.266091	-40.895299	26.813457	5.980535	41.981374	28.821817	21.087019	3.822655	43.066910	28.875690	10.540821	-4.268964	50.876825	34.876630	-1.192755	-6.575092	60.209178	40.172436
-0.465000	-160.147433	-5.066637	-73.570646	0.075651	-0.178901	-0.018378	99.338748	3.625647	1.484992	14.291672	9.772217	-25.290682	-40.984068	26.749331	6.014520	41.972215	28.846176	21.161349	3.848335	43.074915	28.873114	10.608568	-4.287391	50.942836	34.902028	-1.069974	-6.651154	60.157811	40.188442
-0.455000	-160.147433	-5.066637	-73.570646	0.075215	-0.178966	-0.018613	99.410400	3.635172	1.549555	14.331773	9.697971	-25.327138	-41.067692	26.861497	6.079540	42.009826	28.884212	21.346584	3.888704	43.143447	28.892777	10.767296	-4.310540	51.084140	34.980721	-0.880475	-6.749196	60.152448	40.280170
-0.445000	-160.147433	-5.066637	-73.570646	0.074840	-0.178980	-0.018819	99.510217	3.653832	1.581351	14.311089	9.587117	-25.379585	-41.142582	27.129161	6.172825	42.101448	28.943056	21.604365	3.936574	43.281015	28.941966	10.990984	-4.334684	51.279414	35.108835	-0.650098	-6.855588	60.197615	40.450211
-0.435000	-160.147433	-5.066637	-73.570646	0.074551	-0.178933	-0.018982	99.605669	3.665558	1.598631	14.226287	9.465102	-25.444685	-41.204102	27.492804	6.283032	42.226638	29.022210	21.874632	3.981764	43.468186	29.018549	11.236861	-4.355498	51.482228	35.265377	-0.413678	-6.954748	60.278288	40.684710
-0.425000	-160.147433	-5.066637	-73.570646	0.074354	-0.178835	-0.019101	99.670960	3.654719	1.622888	14.094649	9.364729	-25.512835	-41.248306	27.873484	6.393822	42.349075	29.115996	22.101322	4.014938	43.666181	29.112642	11.461878	-4.369523	51.643336	35.419884	-0.198660	-7.034252	60.363129	40.956635
-0.415000	-160.147433	-5.066637	-73.570646	0.074236	-0.178708	-0.019190	99.699737	3.614475	1.667047	13.946901	9.315844	-25.573531	-41.275194	28.198048	6.489906	42.435928	29.217403	22.253535	4.031113	43.834062	29.211174	11.637573	-4.375564	51.732880	35.544709	-0.014533	-7.088194	60.415609	41.232437
-0.405000	-160.147433	-5.066637	-73.570646	0.074172	-0.178574	-0.019271	99.706758	3.550150	1.730808	13.813980	9.334059	-25.620972	-41.291024	28.420143	6.561841	42.470541	29.319298	22.331200	4.031032	43.943662	29.302080	11.756300	-4.375176	51.748322	35.625948	0.143850	-7.117043	60.408982	41.478939
-0.395000	-160.147433	-5.066637	-73.570646	0.074135	-0.178445	-0.019368	99.719228	3.476042	1.805095	13.715428	9.415616	-25.656200	-41.307468	28.529499	6.606901	42.452984	29.413466	22.356125	4.020151	43.985084	29.375907	11.828610	-4.372009	51.705998	35.667878	0.281611	-7.124969	60.339805	41.667471
-0.385000	-160.147433	-5.066637	-73.570646	0.074103	-0.178313	-0.019502	99.764601	3.407706	1.880864	13.655078	9.541688	-25.685284	-41.337520	28.547796	6.626575	42.394417	29.491631	22.357720	4.006227	43.963020	29.425134	11.876757	-4.370375	51.625039	35.688907	0.389314	-7.117124	60.234216	41.774512
-0.375000	-160.147433	-5.066637	-73.570646	0.074058	-0.178161	-0.019690	99.861627	3.353734	1.955834	13.623972	9.687766	-25.715893	-41.390343	28.515535	6.623590	42.313581	29.550679	22.362489	3.996635	43.889300	29.443326	11.929043	-4.373696	51.514766	35.710917	0.440826	-7.098743	60.141983	41.781512
-0.365000	-160.147433	-5.066637	-73.570646	0.073987	-0.177958	-0.019953	100.017274	3.311370	2.035817	13.606185	9.830085	-25.754866	-41.467835	28.477393	6.600839	42.236955	29.598898	22.390651	3.996089	43.777474	29.426113	12.016059	-4.383317	51.371814	35.746997	0.408087	-7.076030	60.117060	41.678025
-0.355000	-160.147433	-5.066637	-73.570646	0.073882	-0.177673	-0.020315	100.228426	3.269079	2.131458	13.583462	9.945009	-25.807766	-41.564908	28.471612	6.562328	42.197519	29.657126	22.457470	4.005170	43.641758	29.374095	12.166738	-4.398131	51.186523	35.793538	0.285544	-7.057041	60.190363	41.469130
-0.345000	-160.147433	-5.066637	-73.570646	0.073729	-0.177278	-0.020803	100.485784	3.216215	2.253477	13.538014	10.005294	-25.879803	-41.673769	28.524539	6.514448	42.227675	29.751331	22.574618	4.020144	43.498607	29.295454	12.402237	-4.415363	50.953545	35.830845	0.107849	-7.050195	60.347776	41.181994
-0.335000	-160.147433	-5.066637	-73.570646	0.073508	-0.176741	-0.021446	100.777322	3.155957	2.409120	13.455555	9.981410	-25.976364	-41.790035	28.648625	6.465883	42.348183	29.899409	22.749190	4.034437	43.367438	29.205296	12.729023	-4.432339	50.680463	35.832539	-0.054337	-7.059500	60.528550	40.863710
-0.325000	-160.147433	-5.066637	-73.570646	0.073184	-0.176031	-0.022279	101.088855	3.114938	2.600271	13.329672	9.852081	-26.101357	-41.916287	28.842739	6.425731	42.559928	30.100064	22.982214	4.041563	43.268311	29.120721	13.136020	-4.447989	50.390117	35.779323	-0.121246	-7.079154	60.651132	40.567924
-0.315000	-160.147433	-5.066637	-73.570646	0.072708	-0.175105	-0.023338	101.400457	3.143627	2.821777	13.164681	9.618823	-26.253240	-42.058876	29.094869	6.400908	42.843956	30.331442	23.270163	4.038482	43.217096	29.054051	13.600166	-4.462465	50.115687	35.669733	-0.036859	-7.093046	60.656573	40.337217
-0.305000	-160.147433	-5.066637	-73.570646	0.072016	-0.173911	-0.024660	101.679947	3.305300	3.058948	12.971854	9.312973	-26.420946	-42.217394	29.387015	6.394408	43.169290	30.560978	23.610237	4.027779	43.220233	29.008294	14.099788	-4.474586	49.890142	35.521744	0.214070	-7.082404	60.544699	40.191494
-0.295000	-160.147433	-5.066637	-73.570646	0.071038	-0.172402	-0.026273	101.877512	3.656711	3.285357	12.758067	8.986504	-26.582787	-42.371891	29.701039	6.405259	43.502657	30.759571	24.005909	4.017162	43.271132	28.977327	14.629711	-4.479239	49.732393	35.364258	0.613925	-7.037607	60.377750	40.126477
-0.285000	-160.147433	-5.066637	-73.570646	0.069711	-0.170541	-0.028186	101.926187	4.227986	3.463707	12.514376	8.688155	-26.710191	-42.477224	30.023673	6.429781	43.813207	30.909515	24.467267	4.015777	43.349325	28.949932	15.209899	-4.467710	49.633031	35.222929	1.135944	-6.965379	60.244010	40.118446
-0.275000	-160.147433	-5.066637	-73.570646	0.067981	-0.168308	-0.030391	101.750176	5.010781	3.551248	12.215943	8.437670	-26.775966	-42.472677	30.348602	6.463274	44.069621	31.000633	25.003617	4.028602	43.422534	28.914548	15.881873	-4.431563	49.544430	35.107345	1.766040	-6.886231	60.199955	40.130034
-0.265000	-160.147433	-5.066637	-73.570646	0.065804	-0.165696	-0.032865	101.278506	5.961106	3.507997	11.837858	8.215546	-26.764585	-42.307123	30.674492	6.501452	44.234814	31.019669	25.612301	4.051816	43.451623	28.861971	16.693097	-4.367200	49.382265	35.005866	2.509799	-6.825527	60.225993	40.116401
-0.255000	-160.147433	-5.066637	-73.570646	0.063135	-0.162698	-0.035589	100.459068	7.016924	3.303775	11.378156	7.979065	-26.680226	-41.969311	31.000198	6.541239	44.268788	30.945271	26.272010	4.072197	43.399413	28.785948	17.676036	-4.277592	49.044621	34.891338	3.382649	-6.805879	60.225697	40.035278
-0.245000	-160.147433	-5.066637	-73.570646	0.059918	-0.159312	-0.038560	99.269258	8.122904	2.921423	10.871402	7.699947	-26.547608	-41.506390	31.319799	6.580633	44.146607	30.758055	26.946207	4.071840	43.244135	28.684140	18.831543	-4.170556	48.447964	34.736335	4.389937	-6.844856	60.074336	39.863522
-0.235000	-160.147433	-5.066637	-73.570646	0.056084	-0.155552	-0.041785	97.721848	9.249559	2.357507	10.381180	7.404562	-26.402661	-41.016642	31.617897	6.617545	43.885818	30.463115	27.594411	4.036437	42.993800	28.561011	20.123318	-4.056019	47.567558	34.531447	5.507635	-6.955366	59.693124	39.616033
-0.225000	-160.147433	-5.066637	-73.570646	0.051570	-0.151478	-0.045264	95.865824	10.395110	1.624552	9.975089	7.193157	-26.275391	-40.615099	31.862378	6.647966	43.565289	30.109811	28.183096	3.962939	42.691681	28.430477	21.483776	-3.944619	46.461297	34.296951	6.673987	-7.143390	59.106899	39.354636
-0.215000	-160.147433	-5.066637	-73.570646	0.046338	-0.147216	-0.048976	93.781190	11.566799	0.757270	9.700107	7.221497	-26.173320	-40.387185	31.992892	6.663985	43.317132	29.791359	28.688053	3.862245	42.404036	28.314050	22.826549	-3.847492	45.259564	34.079383	7.798240	-7.400991	58.446406	39.172961
-0.205000	-160.147433	-5.066637	-73.570646	0.040388	-0.142960	-0.052865	91.565526	12.749914	-0.179844	9.577601	7.643795	-26.075808	-40.355412	31.908977	6.652170	43.288108	29.618449	29.085318	3.754856	42.192030	28.233067	24.059421	-3.775363	44.120564	33.931196	8.785726	-7.697989	57.883416	39.153572
